# xmcd CD database file
# Copyright (C) 1995-1998 Ti Kan
#
# Track frame offsets:
#	150
#	14915
#	31470
#	45375
#	57757
#	71805
#	89582
#	102807
#	113817
#	130150
#	141665
#	156327
#
# Disc length: 2241 seconds
#
# Revision: 1
# Processed by: cddbd v1.4b41PL1 Copyright (c) Steve Scherf et al.
# Submitted via: CDex 1.30Release
#
DISCID=af08bf0c
DTITLE=Floyd cramer - Blue Skies
DYEAR=1997
DGENRE=Country
TTITLE0=Let It Be Me
TTITLE1=Put A Little Love In Your Heart
TTITLE2=Love Me Tender
TTITLE3=The Last Farewell
TTITLE4=Love Story
TTITLE5=Bridge Over Troubled Water
TTITLE6=Green Green Grass Of Home
TTITLE7=I Love You Because
TTITLE8=Always On My Mind
TTITLE9=It Makes No Difference Now
TTITLE10=It Was Almost Like A Sond
TTITLE11=Blue Skies
EXTD=YEAR: 1997 ID3G:   2
EXTT0=
EXTT1=
EXTT2=
EXTT3=
EXTT4=
EXTT5=
EXTT6=
EXTT7=
EXTT8=
EXTT9=
EXTT10=
EXTT11=
PLAYORDER=
